<svg xmlns="http://www.w3.org/2000/svg" viewBox="0 0 1024 1024" role="img" aria-label="Заметки пока ИИшка работает">
  <defs>
    <linearGradient id="bg" x1="120" y1="80" x2="900" y2="940" gradientUnits="userSpaceOnUse">
      <stop offset="0" stop-color="#ffffff"/>
      <stop offset="1" stop-color="#f7f5f0"/>
    </linearGradient>
    <filter id="shadow" x="-20%" y="-20%" width="140%" height="140%">
      <feDropShadow dx="0" dy="28" stdDeviation="30" flood-color="#1f2933" flood-opacity="0.13"/>
    </filter>
  </defs>

  <rect width="1024" height="1024" rx="208" fill="#f7f5f0"/>
  <circle cx="164" cy="154" r="170" fill="#2563eb" opacity="0.08"/>
  <circle cx="854" cy="842" r="210" fill="#2563eb" opacity="0.08"/>

  <g filter="url(#shadow)">
    <rect x="112" y="116" width="800" height="792" rx="72" fill="url(#bg)" stroke="#e5e7eb" stroke-width="4"/>
  </g>

  <g transform="translate(160 188)">
    <text x="352" y="0" text-anchor="middle" font-family="-apple-system,BlinkMacSystemFont,'Segoe UI',Arial,sans-serif" font-size="92" font-weight="850" fill="#1f2933">Заметки</text>
  </g>

  <g transform="translate(308 270)">
    <rect x="0" y="0" width="408" height="210" rx="40" fill="#ffffff" stroke="#e5e7eb" stroke-width="5"/>
    <path d="M58 66h292M58 138h240" stroke="#2563eb" stroke-width="11" stroke-linecap="round"/>
    <circle cx="152" cy="178" r="10" fill="#2563eb"/>
    <circle cx="204" cy="178" r="10" fill="#2563eb" opacity="0.72"/>
    <circle cx="256" cy="178" r="10" fill="#2563eb" opacity="0.44"/>
  </g>

  <g transform="translate(198 570)">
    <text x="314" y="0" text-anchor="middle" font-family="-apple-system,BlinkMacSystemFont,'Segoe UI',Arial,sans-serif" font-size="56" font-weight="750" fill="#2563eb">пока</text>
    <text x="314" y="88" text-anchor="middle" font-family="-apple-system,BlinkMacSystemFont,'Segoe UI',Arial,sans-serif" font-size="70" font-weight="850" fill="#1f2933">ИИшка</text>
    <text x="314" y="166" text-anchor="middle" font-family="-apple-system,BlinkMacSystemFont,'Segoe UI',Arial,sans-serif" font-size="60" font-weight="760" fill="#1f2933">работает</text>
  </g>

  <g transform="translate(232 790)">
    <rect x="0" y="0" width="560" height="74" rx="37" fill="#ffffff" stroke="#e5e7eb" stroke-width="3"/>
    <text x="280" y="48" text-anchor="middle" font-family="-apple-system,BlinkMacSystemFont,'Segoe UI',Arial,sans-serif" font-size="24" font-weight="620" fill="#667085">заметки о работе в IT, проектах и продуктах</text>
  </g>
</svg>
